<svg class="svg-icon" style="width: 1em; height: 1em;vertical-align: middle;fill: currentColor;overflow: hidden;" viewBox="0 0 1024 1024" version="1.1" xmlns="http://www.w3.org/2000/svg"><path d="M949.24 661.78c-14.24-20.34-45.72-28.18-70.22-17.5l-167.44 69.08c-6.86-20.94-26.84-35.92-50.34-35.92h-148c-22.22 0-58.62-6.48-79.58-14.16l-0.84-0.34c-0.1-0.04-0.18-0.06-0.26-0.1-26.26-9.66-66.66-15.42-108.06-15.42h-64.92v-17.68c0-18.48-15.04-33.54-33.54-33.54H190.92v-15.5c0-5.52-4.48-10-10-10h-104c-5.52 0-10 4.48-10 10v382.6c0 5.52 4.48 10 10 10h104c5.52 0 10-4.48 10-10v-20.34h35.12c18.5 0 33.54-15.04 33.54-33.54v-22.52l275.9 64.02c5.8 1.26 12.24 1.86 18.94 1.86 21.52 0 45.98-6.18 62-16.5l317.28-208.26c11.74-7.54 19.94-19.36 22.5-32.44 2.36-12-0.1-24-6.96-33.8zM170.92 953.3h-84v-362.6h84v362.6z m68.66-43.88c0 7.48-6.06 13.54-13.54 13.54H190.92V616.2h35.12c7.48 0 13.54 6.08 13.54 13.54v279.68z m697-217.7c-1.52 7.76-6.52 14.86-13.78 19.54L605.52 919.52c-16.48 10.6-46.6 16.04-65.64 11.88l-280.3-65.04v-198.94h64.92c39.1 0 76.86 5.28 101.04 14.14l0.84 0.34c0.08 0.04 0.18 0.08 0.26 0.1 23.14 8.52 61.98 15.44 86.6 15.44h148c17.6 0 32.02 13.32 32.84 30.42 0.04 0.46 0.04 0.94 0.04 1.42 0 2.04-0.2 4.02-0.6 6.06-3.02 14.92-16.58 25.74-32.28 25.74h-147.76c-4.3-0.18-43.92-0.98-76.84 27.48-4.18 3.62-4.64 9.94-1.02 14.1a9.894 9.894 0 0 0 7.56 3.46c2.32 0 4.64-0.8 6.54-2.42 27.82-24.06 62.66-22.64 62.96-22.62h148.56c25.18 0 47-17.58 51.88-41.8 0.36-1.74 0.6-3.48 0.78-5.24l172.84-71.3c0.08-0.04 0.14-0.06 0.22-0.1 15.96-7 36.98-2.14 45.9 10.6 3.7 5.3 5.02 11.86 3.72 18.48z" fill="#23130D" /><path d="M86.92 590.7h84v362.6h-84z" fill="#3594BF" /><path d="M152 590.7h18.92v362.6H152z" fill="#FFFFFF" opacity=".4" /><path d="M239.58 629.74v279.68c0 7.48-6.06 13.54-13.54 13.54H190.92V616.2h35.12c7.48 0 13.54 6.08 13.54 13.54z" fill="#E1E1E5" /><path d="M190.92 616.2h20v306.76h-20z" fill="#23130D" opacity=".2" /><path d="M936.58 691.72c-1.52 7.76-6.52 14.86-13.78 19.54L605.52 919.52c-16.48 10.6-46.6 16.04-65.64 11.88l-280.3-65.04v-198.94h64.92c39.1 0 76.86 5.28 101.04 14.14l0.84 0.34c0.08 0.04 0.18 0.08 0.26 0.1 23.14 8.52 61.98 15.44 86.6 15.44h148c17.6 0 32.02 13.32 32.84 30.42 0.04 0.46 0.04 0.94 0.04 1.42 0 2.04-0.2 4.02-0.6 6.06-3.02 14.92-16.58 25.74-32.28 25.74h-147.76c-4.3-0.18-43.92-0.98-76.84 27.48-4.18 3.62-4.64 9.94-1.02 14.1a9.894 9.894 0 0 0 7.56 3.46c2.32 0 4.64-0.8 6.54-2.42 27.82-24.06 62.66-22.64 62.96-22.62h148.56c25.18 0 47-17.58 51.88-41.8 0.36-1.74 0.6-3.48 0.78-5.24l172.84-71.3c0.08-0.04 0.14-0.06 0.22-0.1 15.96-7 36.98-2.14 45.9 10.6 3.7 5.3 5.02 11.86 3.72 18.48z" fill="#F8D3C9" /><path d="M936.58 691.72c-1.52 7.76-6.52 14.86-13.78 19.54L605.52 919.52c-16.48 10.6-46.6 16.04-65.64 11.88l-280.3-65.04v-24.12l280.3 65.04c19.04 4.16 49.16-1.28 65.64-11.88L922.8 687.14c4.86-3.14 8.72-7.36 11.18-12.14 2.84 4.96 3.76 10.82 2.6 16.72z" fill="#23130D" opacity=".2" /><path d="M694.12 729.16c0 2.04-0.2 4.02-0.6 6.06a29.92 29.92 0 0 1-1.86 5.96c-4.92-11.66-16.7-19.74-30.42-19.74h-148c-24.62 0-63.46-6.92-86.6-15.44a1.388 1.388 0 0 1-0.26-0.1l-0.84-0.34c-24.18-8.86-61.94-14.14-101.04-14.14h-64.92v-24.12h64.92c39.1 0 76.86 5.28 101.04 14.14l0.84 0.34c0.08 0.04 0.18 0.08 0.26 0.1 23.14 8.52 61.98 15.44 86.6 15.44h148c17.6 0 32.02 13.32 32.84 30.42 0.04 0.46 0.04 0.94 0.04 1.42z" fill="#FFFFFF" opacity=".4" /><path d="M838.94 559c0 12-8.42 22.06-19.66 24.62v7.78c0 5.52-4.46 10-10 10-5.52 0-10-4.48-10-10v-7.14h-9.64c-5.52 0-10-4.48-10-10s4.48-10 10-10H813.7a5.262 5.262 0 0 0 0-10.52h-8.8c-13.94 0-25.26-11.32-25.26-25.24 0-12 8.42-22.06 19.64-24.62v-7.78c0-5.52 4.48-10 10-10 5.54 0 10 4.48 10 10v7.14h9.66c5.52 0 10 4.46 10 10 0 5.52-4.48 10-10 10h-24.04c-2.9 0-5.26 2.36-5.26 5.26 0 2.88 2.36 5.24 5.26 5.24h8.8c13.92 0 25.24 11.34 25.24 25.26z" fill="#23130D" /><path d="M809.3 458.9c-46.78 0-84.84 38.06-84.84 84.84s38.06 84.84 84.84 84.84 84.84-38.06 84.84-84.84-38.06-84.84-84.84-84.84z m0 149.68c-35.76 0-64.84-29.08-64.84-64.84s29.08-64.84 64.84-64.84 64.84 29.08 64.84 64.84-29.08 64.84-64.84 64.84z" fill="#23130D" /><path d="M809.3 478.9c-35.76 0-64.84 29.08-64.84 64.84s29.08 64.84 64.84 64.84 64.84-29.08 64.84-64.84-29.08-64.84-64.84-64.84z m-4.4 54.84h8.8c13.92 0 25.24 11.34 25.24 25.26 0 12-8.42 22.06-19.66 24.62v7.78c0 5.52-4.46 10-10 10-5.52 0-10-4.48-10-10v-7.14h-9.64c-5.52 0-10-4.48-10-10s4.48-10 10-10H813.7a5.262 5.262 0 0 0 0-10.52h-8.8c-13.94 0-25.26-11.32-25.26-25.24 0-12 8.42-22.06 19.64-24.62v-7.78c0-5.52 4.48-10 10-10 5.54 0 10 4.48 10 10v7.14h9.66c5.52 0 10 4.46 10 10 0 5.52-4.48 10-10 10h-24.04c-2.9 0-5.26 2.36-5.26 5.26 0 2.88 2.36 5.24 5.26 5.24z" fill="#F9C139" /><path d="M357.3 468.84c0 12-8.42 22.04-19.64 24.6v7.78c0 5.52-4.48 10-10 10s-10-4.48-10-10v-7.14H308c-5.52 0-10-4.46-10-10 0-5.52 4.48-10 10-10h24.06c2.9 0 5.24-2.34 5.24-5.24s-2.34-5.26-5.24-5.26h-8.8c-13.94 0-25.26-11.34-25.26-25.26 0-12 8.42-22.06 19.66-24.62v-7.78c0-5.52 4.48-10 10-10s10 4.48 10 10v7.14h9.64c5.52 0 10 4.48 10 10s-4.48 10-10 10h-24.04c-2.9 0-5.26 2.36-5.26 5.26s2.36 5.26 5.26 5.26h8.8c13.92 0 25.24 11.32 25.24 25.26z" fill="#23130D" /><path d="M327.66 368.74c-46.78 0-84.84 38.06-84.84 84.84s38.06 84.84 84.84 84.84 84.84-38.06 84.84-84.84-38.06-84.84-84.84-84.84z m0 149.68c-35.76 0-64.84-29.1-64.84-64.84 0-35.76 29.08-64.84 64.84-64.84s64.84 29.08 64.84 64.84c0 35.74-29.08 64.84-64.84 64.84z" fill="#23130D" /><path d="M327.66 388.74c-35.76 0-64.84 29.08-64.84 64.84 0 35.74 29.08 64.84 64.84 64.84s64.84-29.1 64.84-64.84c0-35.76-29.08-64.84-64.84-64.84z m-4.4 54.84h8.8c13.92 0 25.24 11.32 25.24 25.26 0 12-8.42 22.04-19.64 24.6v7.78c0 5.52-4.48 10-10 10s-10-4.48-10-10v-7.14H308c-5.52 0-10-4.46-10-10 0-5.52 4.48-10 10-10h24.06c2.9 0 5.24-2.34 5.24-5.24s-2.34-5.26-5.24-5.26h-8.8c-13.94 0-25.26-11.34-25.26-25.26 0-12 8.42-22.06 19.66-24.62v-7.78c0-5.52 4.48-10 10-10s10 4.48 10 10v7.14h9.64c5.52 0 10 4.48 10 10s-4.48 10-10 10h-24.04c-2.9 0-5.26 2.36-5.26 5.26s2.36 5.26 5.26 5.26z" fill="#F9C139" /><path d="M619.86 416.54c0 16.22-12.22 29.6-27.92 31.46v14.58c0 5.54-4.48 10-10 10-5.54 0-10-4.46-10-10v-14.34H554c-5.52 0-10-4.48-10-10 0-5.54 4.48-10 10-10h34.18c6.44 0 11.68-5.24 11.68-11.7 0-6.44-5.24-11.68-11.68-11.68h-12.5c-17.48 0-31.68-14.2-31.68-31.68 0-16.2 12.22-29.58 27.94-31.44v-14.6c0-5.52 4.46-10 10-10 5.52 0 10 4.48 10 10v14.36h17.92c5.52 0 10 4.48 10 10s-4.48 10-10 10h-34.18c-6.44 0-11.68 5.24-11.68 11.68 0 6.44 5.24 11.68 11.68 11.68h12.5c17.48 0 31.68 14.22 31.68 31.68z" fill="#23130D" /><path d="M581.94 278.5c-64.16 0-116.36 52.2-116.36 116.36s52.2 116.38 116.36 116.38 116.38-52.22 116.38-116.38-52.22-116.36-116.38-116.36z m0 212.74c-53.14 0-96.36-43.24-96.36-96.38s43.22-96.36 96.36-96.36 96.38 43.22 96.38 96.36-43.24 96.38-96.38 96.38z" fill="#23130D" /><path d="M581.94 298.5c-53.14 0-96.36 43.22-96.36 96.36s43.22 96.38 96.36 96.38 96.38-43.24 96.38-96.38-43.24-96.36-96.38-96.36z m-6.26 86.36h12.5c17.48 0 31.68 14.22 31.68 31.68 0 16.22-12.22 29.6-27.92 31.46v14.58c0 5.54-4.48 10-10 10-5.54 0-10-4.46-10-10v-14.34H554c-5.52 0-10-4.48-10-10 0-5.54 4.48-10 10-10h34.18c6.44 0 11.68-5.24 11.68-11.7 0-6.44-5.24-11.68-11.68-11.68h-12.5c-17.48 0-31.68-14.2-31.68-31.68 0-16.2 12.22-29.58 27.94-31.44v-14.6c0-5.52 4.46-10 10-10 5.52 0 10 4.48 10 10v14.36h17.92c5.52 0 10 4.48 10 10s-4.48 10-10 10h-34.18c-6.44 0-11.68 5.24-11.68 11.68 0 6.44 5.24 11.68 11.68 11.68z" fill="#F9C139" /><path d="M581.93 244.232a10 10 0 0 0 10-10V60.704a10 10 0 1 0-20 0v173.528a10 10 0 0 0 10 10zM536.764 260.638a10 10 0 0 0 10-10V129.472a10 10 0 1 0-20 0v121.166a10 10 0 0 0 10 10zM491.598 281.068a10 10 0 0 0 10-10V169.23a10 10 0 0 0-20 0v101.838a10 10 0 0 0 10 10zM672.26 281.068a10 10 0 0 0 10-10V169.23a10 10 0 1 0-20 0v101.838a10 10 0 0 0 10 10zM627.096 260.638a10 10 0 0 0 10-10V129.472a10 10 0 1 0-20 0v121.166a10 10 0 0 0 10 10zM809.288 427.248a10 10 0 0 0 10-10V243.72a10 10 0 1 0-20 0v173.528a10 10 0 0 0 10 10zM764.122 443.654a10 10 0 0 0 10-10v-121.166a10 10 0 1 0-20 0v121.166a10 10 0 0 0 10 10zM854.456 443.654a10 10 0 0 0 10-10v-121.166a10 10 0 1 0-20 0v121.166a10 10 0 0 0 10 10zM327.654 339.946a10 10 0 0 0 10-10V156.418a10 10 0 0 0-20 0v173.528a10 10 0 0 0 10 10zM282.488 356.352a10 10 0 0 0 10-10v-121.164a10 10 0 0 0-20 0v121.164a10 10 0 0 0 10 10zM372.82 356.352a10 10 0 0 0 10-10v-121.164a10 10 0 0 0-20 0v121.164a10 10 0 0 0 10 10z" fill="#23130D" /><path d="M658.59 403.92a10 10 0 0 1-10-10c0-36.756-29.904-66.66-66.66-66.66a10 10 0 1 1 0-20c47.786 0 86.66 38.876 86.66 86.66a10 10 0 0 1-10 10z" fill="#FFFFFF" /><path d="M375.642 463.57a10 10 0 0 1-10-10c0-20.944-17.038-37.982-37.982-37.982a10 10 0 0 1 0-20c31.97 0 57.982 26.01 57.982 57.982a10 10 0 0 1-10 10z" fill="#FFFFFF" /><path d="M856.788 554.082a10 10 0 0 1-10-10c0-20.944-17.038-37.982-37.982-37.982a10 10 0 0 1 0-20c31.97 0 57.982 26.01 57.982 57.982a10 10 0 0 1-10 10z" fill="#FFFFFF" /></svg>